<svg width="17" height="17" viewBox="0 0 17 17" fill="none" xmlns="http://www.w3.org/2000/svg">
<path d="M11.2622 2.07442C10.4083 1.73221 9.47615 1.54395 8.50001 1.54395C4.39711 1.54395 1.07106 4.87 1.07106 8.97289C1.07106 13.0758 4.39711 16.4018 8.50001 16.4018C9.87196 16.4018 11.157 16.0299 12.26 15.3814L15.3647 15.8302L15.0615 12.4598C15.6152 11.42 15.929 10.2331 15.929 8.97289C15.929 8.08399 15.7728 7.23155 15.4865 6.4415" stroke="#457EFF"/>
<ellipse cx="13.931" cy="3.82808" rx="1.99798" ry="2.02632" fill="#457EFF"/>
<path d="M6.39987 6.87624C6.39987 6.45873 6.59337 6.05831 6.9378 5.76309C7.28224 5.46786 7.82907 5.2875 8.55692 5.2915C9.28476 5.2955 9.71548 5.46786 10.0599 5.76309C10.4043 6.05831 10.5978 6.45873 10.5978 6.87624C10.6172 7.21694 10.5253 7.55469 10.336 7.83862C10.1467 8.12255 9.87027 8.33728 9.54835 8.45048C9.22644 8.60142 8.95001 8.88773 8.76073 9.26631C8.57144 9.64488 8.47954 10.0952 8.49886 10.5495M8.49886 12.6485V12.6537" stroke="#457EFF" stroke-linecap="round" stroke-linejoin="round"/>
</svg>
