<svg fill="none" height="24" viewBox="0 0 24 24" width="24" xmlns="http://www.w3.org/2000/svg"><circle cx="12" cy="12" fill="#f8f9fb" r="12"/><g fill="#3dc3e8"><path d="m20.9369 11.9927c0 1.184-1.4828 2.3061-3.7562 3.002.5246 2.3171.2915 4.1606-.7359 4.7508-.2368.1384-.5137.204-.8161.204v-.8125c.1676 0 .3024-.0327.4153-.0947.4955-.2842.7105-1.3662.5429-2.7579-.0401-.3425-.1057-.7031-.1858-1.0711-.7141.1749-1.4938.3097-2.3135.3971-.4918.674-1.0019 1.2861-1.5156 1.8216 1.1877 1.1039 2.3026 1.7087 3.0603 1.7087v.8124c-1.0018 0-2.3134-.714-3.6395-1.9527-1.3262 1.2314-2.63772 1.9382-3.63961 1.9382v-.8125c.75415 0 1.87261-.6011 3.06031-1.6977-.5101-.5356-1.0201-1.144-1.50465-1.818-.82337-.0874-1.60302-.2222-2.31709-.4007-.0838.3643-.14573.7177-.18945 1.0565-.17123 1.3917.04007 2.4737.53191 2.7615.1093.0656.25138.0948.41897.0948v.8124c-.30603 0-.58292-.0656-.82337-.204-1.02374-.5902-1.25327-2.43-.725-4.7398-2.26608-.6995-3.74159-1.818-3.74159-2.9984 0-1.1841 1.48279-2.30617 3.75616-3.00203-.52462-2.31708-.29145-4.16055.73593-4.75076.23681-.13844.5137-.20402.81973-.20402 1.00189 0 2.31345.71407 3.63955 1.95277 1.3262-1.23141 2.6377-1.93819 3.6396-1.93819.306 0 .5829.06557.8234.20402 1.0237.5902 1.2532 2.43002.725 4.73983 2.2588.69585 3.7343 1.81798 3.7343 2.99838zm-4.7435 2.43c-.1348-.47-.3024-.9545-.4918-1.4391-.1494.2915-.3061.583-.4773.8744-.1676.2915-.3461.5756-.5246.8525.5173-.0765 1.0164-.1712 1.4937-.2878zm-1.6686-3.88c-.2842-.4918-.5756-.95818-.878-1.39173-.5428-.04736-1.093-.07286-1.6467-.07286-.5502 0-1.1003.0255-1.6395.06922-.3024.43355-.59748.89627-.88165 1.38447-.27689.4772-.52827.9618-.7578 1.45.22588.4881.48091.9763.75415 1.4536.28417.4918.5756.9582.878 1.3917.5429.0474 1.093.0729 1.6468.0729.5501 0 1.1002-.0255 1.6394-.0692.3024-.4336.5975-.8963.8817-1.3845.2768-.4772.5282-.9618.7578-1.45-.2296-.4882-.481-.9764-.7542-1.4536zm1.1768.4736c.1967-.4882.3643-.9764.5027-1.45-.4772-.11658-.98-.21495-1.501-.29146.1785.28053.3571.56835.5246.86346.1676.2914.3243.5865.4737.878zm-3.6943-3.88731c-.3388.34975-.6776.73957-1.0128 1.16583.3279-.01457.6631-.0255 1.0019-.0255.3425 0 .6813.00728 1.0128.0255-.3279-.42626-.6667-.81608-1.0019-1.16583zm-2.71052 2.14585c-.51733.07651-1.01645.17124-1.49372.28782.1348.46994.30239.95454.49184 1.43904.14937-.2914.30603-.5829.47726-.8743.17123-.2915.34611-.57567.52462-.85256zm2.69232 7.58156c.3388-.3498.6777-.7396 1.0128-1.1658-.3278.0145-.663.0255-1.0018.0255-.3425 0-.6813-.0073-1.0129-.0255.3279.4262.6667.816 1.0019 1.1658zm-2.69596-2.1459c-.17852-.2805-.35703-.5683-.52462-.8634-.16759-.2915-.32425-.5829-.47362-.8744-.19674.4882-.36432.9764-.50277 1.45.47727.113.98003.2113 1.50101.2878zm-3.29711-4.5613c-1.2897.5501-2.124 1.2715-2.124 1.8435s.8343 1.297 2.124 1.8435c.31331.1348.65578.255 1.00917.3679.20766-.714.4809-1.4573.81972-2.2187-.33517-.7578-.60477-1.4974-.80879-2.20779-.36068.11294-.70314.23679-1.0201.37159zm1.96005-5.20614c-.49548.28417-.71043 1.3662-.54284 2.75791.04007.34247.10565.70314.1858 1.07111.71407-.17487 1.49372-.30967 2.31345-.39711.49181-.674 1.00191-1.28606 1.51561-1.82161-1.1877-1.1039-2.30255-1.70867-3.06034-1.70867-.16394.00364-.30238.03643-.41168.09837zm8.64172 2.77613c.1712-1.39171-.0401-2.47375-.5319-2.76156-.1093-.06558-.2514-.09473-.419-.09473-.7541 0-1.8726.60114-3.0603 1.69775.5101.53555 1.0201 1.14397 1.5047 1.81796.8233.08744 1.603.22224 2.3171.40076.0837-.36797.1493-.72136.1894-1.06018zm1.4026 2.43001c-.3133-.1348-.6557-.25501-1.0091-.36795-.2077.71405-.4809 1.45725-.8198 2.21875.3352.7578.6048 1.4973.8088 2.2078.3607-.113.7032-.2368 1.0238-.3716 1.2897-.5502 2.124-1.2715 2.124-1.8435-.0037-.572-.838-1.297-2.1277-1.8435z"/><path d="m11.9965 10.3263c.9195 0 1.6649.7455 1.6649 1.665s-.7454 1.6649-1.6649 1.6649-1.665-.7454-1.665-1.6649.7455-1.665 1.665-1.665z"/></g></svg>